<svg id="Group_76" data-name="Group 76" xmlns="http://www.w3.org/2000/svg" width="54.533" height="51.177" viewBox="0 0 54.533 51.177">
  <path id="Path_10742" data-name="Path 10742" d="M.445,24.413a.833.833,0,0,0,.082-.132.3.3,0,0,1,.277-.2c.267-.019.535-.053.8-.053q4.729-.014,9.458-.019h.343c.053-.066.11-.129.154-.2a11.489,11.489,0,0,1,2.2-2.419,14.767,14.767,0,0,1,6.947-3.332,19.9,19.9,0,0,1,2.36-.334c.258-.022.513-.057.805-.091a24.158,24.158,0,0,0-.192-6.595c-.138.06-.245.1-.349.154a11.364,11.364,0,0,1-2.706.887,10.776,10.776,0,0,1-3.206.182,11.812,11.812,0,0,1-6.135-2.426A13.323,13.323,0,0,1,8.163,6.511a9.926,9.926,0,0,1-1.334-3A6.72,6.72,0,0,1,6.69,2.383c-.025-.343-.006-.686-.022-1.029a.534.534,0,0,1,.387-.6A.221.221,0,0,0,7.121.712h.223c.374.148.743.327,1.129.44a5.509,5.509,0,0,0,1.542.17c1.677.009,3.357,0,5.034.016a17.9,17.9,0,0,1,2.054.1,7.738,7.738,0,0,1,4.965,2.391,8.591,8.591,0,0,1,1.683,2.885,19.239,19.239,0,0,1,.676,2.514,1.042,1.042,0,0,0,.038.132c0,.016.025.025.041.038.176-.393.343-.8.538-1.18a4.892,4.892,0,0,1,3.385-2.605c.761-.182,1.545-.277,2.322-.4a27.121,27.121,0,0,0,2.7-.491,5.743,5.743,0,0,0,2.218-1.1,2.365,2.365,0,0,1,.522-.311.349.349,0,0,1,.51.186,2.1,2.1,0,0,1,.179.579,8.64,8.64,0,0,1,.025,2.133,7.85,7.85,0,0,1-.783,2.674,8.688,8.688,0,0,1-6.116,4.792,8.255,8.255,0,0,1-3.366.044,8.619,8.619,0,0,1-1.032-.308c-.16-.05-.311-.113-.491-.179a1.781,1.781,0,0,0-.022.211c-.019,1.038-.035,2.077-.06,3.115-.006.267-.05.535-.076.8-.009.091-.025.179-.038.293.223.025.434.057.642.072a17.575,17.575,0,0,1,5.342,1.3,14.168,14.168,0,0,1,4.65,3.074,19.833,19.833,0,0,1,1.472,1.774l.11.132h.311q3.365.009,6.73.019a3.265,3.265,0,0,1,.525.05c.211.035.283.107.255.318a7.366,7.366,0,0,1-.173.982c-.736,2.825-1.5,5.641-2.372,8.429a.824.824,0,0,1-.658.636c-2,.5-3.986,1.032-5.984,1.539-1.916.488-3.835.956-5.754,1.425q-3.96.972-7.919,1.925c-1.41.343-2.819.692-4.232,1.016-.667.154-.444.227-.95-.23q-1.85-1.671-3.669-3.37-2.869-2.671-5.726-5.358-1.892-1.784-3.772-3.584C2.666,26.769,1.593,25.718.514,24.674a.359.359,0,0,0-.069-.038Zm43.286.7c-.277-.05-41.039-.041-41.285.019L17.561,39.363c7.954-1.973,15.917-3.889,23.833-5.887C41.717,32.643,43.728,25.426,43.731,25.117ZM23.435,9.943a1.765,1.765,0,0,0-.019-.242c-.085-.434-.16-.872-.271-1.3a10.916,10.916,0,0,0-1.158-2.957,6,6,0,0,0-4.641-2.879,22.292,22.292,0,0,0-2.555-.1c-1.372-.019-2.747-.009-4.118-.028a10.522,10.522,0,0,1-2.564-.264c-.135-.035-.28-.044-.444-.069.009.148.006.261.022.368A8.869,8.869,0,0,0,8.949,5.815a12.481,12.481,0,0,0,4.181,4,10.119,10.119,0,0,0,4.4,1.4,10.653,10.653,0,0,0,2.879-.154A10.756,10.756,0,0,0,23.435,9.943Zm-10.6,13.928a1.376,1.376,0,0,0,.186.038c.434.022.868.053,1.306.057,2.567.016,5.135.038,7.705.041s5.116-.013,7.674-.022q2.421-.009,4.842-.031c.365,0,.73-.031,1.1-.047a.314.314,0,0,0-.019-.076.911.911,0,0,0-.079-.113,11.134,11.134,0,0,0-1.995-1.966,14.361,14.361,0,0,0-4.688-2.344,12.163,12.163,0,0,0-2.526-.491c-.749-.057-1.5-.1-2.25-.11a13.163,13.163,0,0,0-1.831.06,16.192,16.192,0,0,0-3.917.988A12.773,12.773,0,0,0,13.37,23.2,4.419,4.419,0,0,0,12.838,23.871Zm23-18.978a1.4,1.4,0,0,0-.186.082,5.662,5.662,0,0,1-1.9.805,32.25,32.25,0,0,1-3.637.61,14.257,14.257,0,0,0-1.708.337,3.81,3.81,0,0,0-2.627,2.36,9.49,9.49,0,0,0-.591,2.53c-.041.393,0,.488.352.658.035.016.066.035.1.047a6.89,6.89,0,0,0,4.354.321,7.954,7.954,0,0,0,3.335-1.8,7.126,7.126,0,0,0,2.548-4.955C35.894,5.576,35.853,5.261,35.837,4.893Z" transform="translate(-0.445 -0.712)" fill="#dd482c"/>
  <path id="Path_10743" data-name="Path 10743" d="M49.464,9.207c-.988.016-1.96.031-2.935.05s-1.944.044-2.942.066c-.1.349-.208.7-.311,1.054Q41.94,14.95,40.6,19.523c-.157.541-.349,1.07-.532,1.62-2.41.654-4.829,1.205-7.246,1.806v.324c0,2.272,0,4.543-.013,6.815,0,.686-.019,1.372-.06,2.058a5.323,5.323,0,0,1-.62,2.228,2.527,2.527,0,0,1-2,1.375,4.506,4.506,0,0,1-4.373-1.793,10.5,10.5,0,0,1-.9-1.4c-1.18-2.1-2.344-4.219-3.517-6.33-.05-.1-.113-.189-.189-.311-.352.072-.7.138-1.051.22-3.272.783-6.538,1.576-9.81,2.357q-3.261.779-6.525,1.542a1.691,1.691,0,0,1-.3.053.544.544,0,0,1-.522-.45.251.251,0,0,1,.16-.267,2.429,2.429,0,0,1,.456-.2c.9-.264,1.806-.541,2.718-.771q4.568-1.156,9.14-2.284,3.455-.859,6.915-1.705c3.373-.827,6.749-1.645,10.121-2.476q3.379-.831,6.752-1.68a.6.6,0,0,0,.1-.041c.022-.06.057-.135.079-.211q1.364-4.7,2.728-9.395c.2-.673.444-1.331.658-2a.464.464,0,0,1,.485-.368c.462-.009.925-.05,1.387-.053,1.334,0,2.668,0,4.005.009a2,2,0,0,1,.494.06,1.244,1.244,0,0,1,.359.2.283.283,0,0,1,.1.346ZM31.672,23.261c-.535.057-9.134,2.212-9.379,2.347.057.113.11.23.173.343.887,1.623,1.765,3.25,2.671,4.864.462.821.966,1.62,1.463,2.423a2.793,2.793,0,0,0,.746.815,3.472,3.472,0,0,0,2.429.683,1.777,1.777,0,0,0,1.211-.61,2.251,2.251,0,0,0,.547-1.1,12.748,12.748,0,0,0,.16-1.378c.035-.768.047-1.539.044-2.306,0-1.891-.025-3.782-.041-5.673C31.7,23.535,31.682,23.406,31.672,23.261Z" transform="translate(4.912 15.337)" fill="#dd482c"/>
  <path id="Path_10744" data-name="Path 10744" d="M7.378,24.385a5.094,5.094,0,0,0,5-3.911c.057-.223.107-.447.167-.67a1.77,1.77,0,0,1,.12-.311.4.4,0,0,1,.469-.261.438.438,0,0,1,.4.428,3.51,3.51,0,0,1-.069.853,6.314,6.314,0,0,1-3.75,4.461,5.873,5.873,0,0,1-2.146.51,5.284,5.284,0,0,1-2.41-.44A6.47,6.47,0,0,1,1.3,20.5a5.542,5.542,0,0,1,.727-4.342,6.388,6.388,0,0,1,4.323-3.042,5.639,5.639,0,0,1,3.008.249,6.284,6.284,0,0,1,2.954,2.083,2.68,2.68,0,0,1,.337.541.456.456,0,0,1-.2.6.483.483,0,0,1-.614-.053,3.265,3.265,0,0,1-.239-.271,6.58,6.58,0,0,0-1.513-1.381,4.892,4.892,0,0,0-3.316-.736,5.1,5.1,0,0,0-4,2.747,4.313,4.313,0,0,0-.491,1.749,5.387,5.387,0,0,0,.4,2.772,5.1,5.1,0,0,0,3.546,2.863,3.87,3.87,0,0,0,.6.1A5.408,5.408,0,0,0,7.378,24.385Z" transform="translate(1.032 25.687)" fill="#dd482c"/>
</svg>