<svg id="sYoe4T.tif" xmlns="http://www.w3.org/2000/svg" width="48.908" height="48.303" viewBox="0 0 48.908 48.303">
  <g id="Group_75" data-name="Group 75" transform="translate(0)">
    <path id="Path_10739" data-name="Path 10739" d="M-101.83-268.633a31.8,31.8,0,0,0-4.4,1.423c-1.183.485-2.344,1.025-3.506,1.561a1.157,1.157,0,0,1-.975.075,8.423,8.423,0,0,0-3.888-.382,15.875,15.875,0,0,0-4.329,1.054c-.271.105-.536.229-.8.358a.545.545,0,0,1-.675-.051.543.543,0,0,1-.095-.633c.353-.9.666-1.828,1.075-2.707a22.112,22.112,0,0,1,4.785-6.694,22.2,22.2,0,0,1,9.617-5.482c.139-.038.275-.087.439-.139-.142-.591-.284-1.169-.421-1.748a.5.5,0,0,1,.348-.684c.273-.081.5.058.6.406.132.467.236.942.353,1.413.027.109.062.216.1.354.407-.065.8-.125,1.2-.194a20.264,20.264,0,0,1,4.17-.272,22.558,22.558,0,0,1,7.666,1.607,21.945,21.945,0,0,1,5.813,3.4c.764.626,1.459,1.338,2.185,2.01a.5.5,0,0,1,.169.608.534.534,0,0,1-.549.323c-.471.006-.942-.006-1.412.015a10.871,10.871,0,0,0-7.328,3.044,1.126,1.126,0,0,1-.923.315,30.742,30.742,0,0,0-7.88.671c-.109.023-.215.066-.364.113l4.582,18.871h.618q9.719,0,19.438,0a2,2,0,0,1,1.889,1.137.931.931,0,0,1,.113.267,5.814,5.814,0,0,1-.034,2.6,1.857,1.857,0,0,1-1.824,1.344c-.861.009-1.721,0-2.582,0h-.536c.083.213.138.362.2.509q1.609,3.909,3.218,7.818c.123.3.222.608.339.91.224.575.151,1.009-.7,1-4.222-.023-8.444-.01-12.667-.01h-28.256c-.146,0-.293.006-.438,0-.323-.019-.481-.144-.523-.4a.476.476,0,0,1,.316-.58,1.378,1.378,0,0,1,.141-.06l3.8-9.188h-.84c-.715,0-1.429.005-2.144,0a2.016,2.016,0,0,1-2.044-2.032c-.005-.406.017-.813,0-1.218a2.04,2.04,0,0,1,2.024-2.1.144.144,0,0,0,.056-.007l5.111-5.124c-.051-.1-.125-.258-.21-.409-.665-1.188-1.34-2.371-2-3.565a2.533,2.533,0,0,1,.072-2.806,2.715,2.715,0,0,1,4.62.165c1.875,3.41,3.811,6.785,5.722,10.174q.441.781.883,1.56h5.208c-.478-2.079-.994-4.124-1.493-6.172-.506-2.076-1-4.155-1.506-6.231C-100.807-264.47-101.314-266.527-101.83-268.633Zm-6.472,24.056c-.074.172-.132.305-.189.439q-.972,2.279-1.944,4.558a3.461,3.461,0,0,1-.181.4.474.474,0,0,1-.62.225.47.47,0,0,1-.283-.593,3.137,3.137,0,0,1,.152-.41q.857-2.037,1.717-4.074c.067-.159.12-.323.2-.528h-3.252l-3.793,9.092h3.285c.093-.22.182-.427.269-.634.15-.358.287-.723.453-1.074a.489.489,0,0,1,.616-.247.45.45,0,0,1,.3.543,2.529,2.529,0,0,1-.148.461c-.123.33-.251.657-.389,1.015h18.36l-2.233-9.171Zm11.764-1.093H-82.7c2.144,0,4.288,0,6.432,0a.993.993,0,0,0,1.133-1.136c0-.374.005-.747,0-1.121a.984.984,0,0,0-.978-1.054c-.129-.013-.26-.008-.389-.008H-116.41a3.366,3.366,0,0,0-.486.023.915.915,0,0,0-.859.9c-.026.5-.015,1.007,0,1.51a.788.788,0,0,0,.441.759,1.809,1.809,0,0,0,.7.124Q-106.575-245.665-96.537-245.67Zm-13.215-21.147a38.932,38.932,0,0,1,8-2.915,33.507,33.507,0,0,1,8.446-.922,1.147,1.147,0,0,0-.06-.18,27.271,27.271,0,0,0-4.542-6.054,10.052,10.052,0,0,0-3.274-2.236,4.347,4.347,0,0,0-3.038-.209,5.205,5.205,0,0,0-2.527,1.9,12.482,12.482,0,0,0-1.912,4.016,26.5,26.5,0,0,0-.867,4.231C-109.624-268.435-109.671-267.676-109.752-266.817Zm14.784,22.24,2.245,9.174h11.886l-3.818-9.174Zm-5.263-35.3a15.886,15.886,0,0,1,4.924,4.306,34.222,34.222,0,0,1,2.832,4.186c.088.15.186.294.3.473a12.545,12.545,0,0,1,8.069-3.144,21.2,21.2,0,0,0-6.58-4.26A20.892,20.892,0,0,0-100.231-279.88Zm-10.544,13.241c.056-.546.114-1.041.157-1.537a28.623,28.623,0,0,1,.892-5.062,14.269,14.269,0,0,1,2.016-4.55c.068-.1.129-.2.193-.3a21.5,21.5,0,0,0-11.653,12.191C-116.4-266.836-113.683-267.428-110.775-266.639Zm7.094,16.652c-.09-.18-.154-.324-.231-.461q-2.984-5.3-5.972-10.59a3.554,3.554,0,0,0-.228-.373,1.688,1.688,0,0,0-1.767-.647,1.623,1.623,0,0,0-1.229,1.414,1.923,1.923,0,0,0,.3,1.2q2.584,4.572,5.163,9.147c.062.11.138.212.2.306Zm27.22,14.519-3.8-9.09h-3.274l3.827,9.09Zm-32.169-14.545-2.315-4.05-4.043,4.05Z" transform="translate(120.936 282.704)" fill="#dd482c"/>
    <path id="Path_10740" data-name="Path 10740" d="M353.868,202.381c-.211,0-.423.014-.633,0a.507.507,0,0,1-.49-.506.464.464,0,0,1,.444-.491,10.69,10.69,0,0,1,1.408,0,.47.47,0,0,1,.463.524.484.484,0,0,1-.511.476c-.226.015-.454,0-.681,0Z" transform="translate(-306.153 -154.092)" fill="#dd482c"/>
    <path id="Path_10741" data-name="Path 10741" d="M-123.523,202.441a3.914,3.914,0,0,1-.436,0,.481.481,0,0,1-.466-.469.448.448,0,0,1,.4-.519,4.727,4.727,0,0,1,1.012,0,.461.461,0,0,1,.4.518.5.5,0,0,1-.475.468A4.011,4.011,0,0,1-123.523,202.441Z" transform="translate(124.427 -154.152)" fill="#dd482c"/>
  </g>
</svg>