<?xml version="1.0" encoding="utf-8"?>
<!-- Generator: Adobe Illustrator 25.2.0, SVG Export Plug-In . SVG Version: 6.00 Build 0)  -->
<svg version="1.1" id="Layer_1" xmlns="http://www.w3.org/2000/svg" xmlns:xlink="http://www.w3.org/1999/xlink" x="0px" y="0px"
	 viewBox="0 0 117.6 98.7" style="enable-background:new 0 0 117.6 98.7;" xml:space="preserve">
<style type="text/css">
	.st0{fill:none;stroke:#DB4934;stroke-width:2.5;stroke-linejoin:round;stroke-miterlimit:10;}
</style>
<g>
	<path class="st0" d="M0,65.6c4.9,0,4.9,5.8,9.8,5.8s4.9-5.8,9.8-5.8s4.9,5.8,9.8,5.8s4.9-5.8,9.8-5.8s4.9,5.8,9.8,5.8
		s4.9-5.8,9.8-5.8s4.9,5.8,9.8,5.8s4.9-5.8,9.8-5.8s4.9,5.8,9.8,5.8s4.9-5.8,9.8-5.8s4.9,5.8,9.8,5.8s4.9-5.8,9.8-5.8"/>
</g>
<g>
	<path class="st0" d="M0,78.7c4.9,0,4.9,5.8,9.8,5.8s4.9-5.8,9.8-5.8s4.9,5.8,9.8,5.8s4.9-5.8,9.8-5.8s4.9,5.8,9.8,5.8
		s4.9-5.8,9.8-5.8s4.9,5.8,9.8,5.8s4.9-5.8,9.8-5.8s4.9,5.8,9.8,5.8s4.9-5.8,9.8-5.8s4.9,5.8,9.8,5.8s4.9-5.8,9.8-5.8"/>
</g>
<g>
	<path class="st0" d="M0,91.7c4.9,0,4.9,5.8,9.8,5.8s4.9-5.8,9.8-5.8s4.9,5.8,9.8,5.8s4.9-5.8,9.8-5.8s4.9,5.8,9.8,5.8
		s4.9-5.8,9.8-5.8s4.9,5.8,9.8,5.8s4.9-5.8,9.8-5.8s4.9,5.8,9.8,5.8s4.9-5.8,9.8-5.8s4.9,5.8,9.8,5.8s4.9-5.8,9.8-5.8"/>
</g>
<line class="st0" x1="62.4" y1="33.6" x2="117.6" y2="33.6"/>
<line class="st0" x1="32.9" y1="33.6" x2="57.8" y2="33.6"/>
<line class="st0" x1="32.9" y1="42" x2="57.7" y2="42"/>
<line class="st0" x1="32.9" y1="49.4" x2="57.7" y2="49.4"/>
<line class="st0" x1="32.9" y1="56.8" x2="57.7" y2="56.8"/>
<path class="st0" d="M25.7,33.6"/>
<line class="st0" x1="0" y1="33.6" x2="28.3" y2="33.6"/>
<path class="st0" d="M63.4,68.1V22.4c0-8.3,6.7-15,15-15s15,6.7,15,15v11.2"/>
<path class="st0" d="M57.8,66V21.8c0-11.4,9.2-20.5,20.5-20.5s20.5,9.2,20.5,20.5v11.8"/>
<path class="st0" d="M33.9,69V31.1v-8.8c0-8.3,6.7-15,15-15c4.5,0,8.5,2,11.2,5.1"/>
<path class="st0" d="M28.3,71.2V29.5v-8.3c0-11.1,8.9-20,20-20c6,0,11.5,2.7,15,7"/>
</svg>
