<?xml version="1.0" encoding="utf-8"?>
<!-- Generator: Adobe Illustrator 25.2.0, SVG Export Plug-In . SVG Version: 6.00 Build 0)  -->
<svg version="1.1" id="Layer_1" xmlns="http://www.w3.org/2000/svg" xmlns:xlink="http://www.w3.org/1999/xlink" x="0px" y="0px"
	 viewBox="0 0 117.6 96.6" style="enable-background:new 0 0 117.6 96.6;" xml:space="preserve">
<style type="text/css">
	.st0{fill:none;stroke:#DB4934;stroke-width:2;stroke-linejoin:round;stroke-miterlimit:10;}
</style>
<g>
	<path class="st0" d="M0,63.7c4.9,0,4.9,5.8,9.8,5.8c4.9,0,4.9-5.8,9.8-5.8c4.9,0,4.9,5.8,9.8,5.8c4.9,0,4.9-5.8,9.8-5.8
		c4.9,0,4.9,5.8,9.8,5.8c4.9,0,4.9-5.8,9.8-5.8c4.9,0,4.9,5.8,9.8,5.8c4.9,0,4.9-5.8,9.8-5.8c4.9,0,4.9,5.8,9.8,5.8
		c4.9,0,4.9-5.8,9.8-5.8c4.9,0,4.9,5.8,9.8,5.8c4.9,0,4.9-5.8,9.8-5.8"/>
</g>
<g>
	<path class="st0" d="M0,76.8c4.9,0,4.9,5.8,9.8,5.8c4.9,0,4.9-5.8,9.8-5.8c4.9,0,4.9,5.8,9.8,5.8c4.9,0,4.9-5.8,9.8-5.8
		c4.9,0,4.9,5.8,9.8,5.8c4.9,0,4.9-5.8,9.8-5.8c4.9,0,4.9,5.8,9.8,5.8c4.9,0,4.9-5.8,9.8-5.8c4.9,0,4.9,5.8,9.8,5.8
		c4.9,0,4.9-5.8,9.8-5.8c4.9,0,4.9,5.8,9.8,5.8c4.9,0,4.9-5.8,9.8-5.8"/>
</g>
<g>
	<path class="st0" d="M0,89.8c4.9,0,4.9,5.8,9.8,5.8c4.9,0,4.9-5.8,9.8-5.8c4.9,0,4.9,5.8,9.8,5.8c4.9,0,4.9-5.8,9.8-5.8
		c4.9,0,4.9,5.8,9.8,5.8c4.9,0,4.9-5.8,9.8-5.8c4.9,0,4.9,5.8,9.8,5.8c4.9,0,4.9-5.8,9.8-5.8c4.9,0,4.9,5.8,9.8,5.8
		c4.9,0,4.9-5.8,9.8-5.8c4.9,0,4.9,5.8,9.8,5.8c4.9,0,4.9-5.8,9.8-5.8"/>
</g>
<line class="st0" x1="62.4" y1="31.7" x2="117.6" y2="31.7"/>
<line class="st0" x1="32.9" y1="31.7" x2="57.8" y2="31.7"/>
<line class="st0" x1="32.9" y1="40.1" x2="57.7" y2="40.1"/>
<line class="st0" x1="32.9" y1="47.5" x2="57.7" y2="47.5"/>
<line class="st0" x1="32.9" y1="54.9" x2="57.7" y2="54.9"/>
<path class="st0" d="M25.7,31.7"/>
<line class="st0" x1="0" y1="31.7" x2="28.3" y2="31.7"/>
<path class="st0" d="M62.4,65.4V20.5c0-8.3,6.7-15,15-15s15,6.7,15,15v11.2"/>
<path class="st0" d="M57.8,64.1V20.5C57.8,9.7,66.5,1,77.3,1s19.5,8.7,19.5,19.5v11.2"/>
<path class="st0" d="M32.9,29.2v-8.8c0-8.3,6.7-15,15-15c5,0,9.3,2.4,12.1,6.1"/>
<line class="st0" x1="32.9" y1="67.9" x2="32.9" y2="29.2"/>
<path class="st0" d="M28.3,28.6v-8.1C28.3,9.7,37,1,47.8,1C53.7,1,59,3.6,62.5,7.8"/>
<line class="st0" x1="28.3" y1="69.3" x2="28.3" y2="28.6"/>
</svg>
