<?xml version="1.0" encoding="utf-8"?>
<!-- Generator: Adobe Illustrator 25.2.0, SVG Export Plug-In . SVG Version: 6.00 Build 0)  -->
<svg version="1.1" id="Layer_1" xmlns="http://www.w3.org/2000/svg" xmlns:xlink="http://www.w3.org/1999/xlink" x="0px" y="0px"
	 viewBox="0 0 89 89" style="enable-background:new 0 0 89 89;" xml:space="preserve">
<style type="text/css">
	.st0{fill:none;stroke:#DB4934;stroke-width:2;stroke-linejoin:round;stroke-miterlimit:10;}
</style>
<line class="st0" x1="44.5" y1="89" x2="44.5" y2="0"/>
<line class="st0" x1="89" y1="44.5" x2="0" y2="44.5"/>
<line class="st0" x1="76" y1="76" x2="13" y2="13"/>
<line class="st0" x1="76" y1="13" x2="13" y2="76"/>
<polyline class="st0" points="10.8,24.3 24.4,24.3 24.4,10.2 "/>
<polyline class="st0" points="78.5,64.7 65,64.7 65,78.8 "/>
<polyline class="st0" points="24.6,78.5 24.6,64.9 10.5,64.9 "/>
<polyline class="st0" points="66.2,10.2 66.2,23.8 80.3,23.8 "/>
<polyline class="st0" points="34.3,8.6 44.4,18.8 54.4,8.8 "/>
<polyline class="st0" points="34.3,18.7 44.4,28.8 54.4,18.8 "/>
<polyline class="st0" points="54.4,79.9 44.3,69.8 34.3,79.8 "/>
<polyline class="st0" points="54.4,69.9 44.3,59.8 34.3,69.8 "/>
<polyline class="st0" points="8.5,54.7 18.6,44.6 8.6,34.5 "/>
<polyline class="st0" points="18.5,54.7 28.6,44.6 18.6,34.5 "/>
<polyline class="st0" points="81.8,34.5 71.7,44.7 81.7,54.7 "/>
<polyline class="st0" points="71.8,34.5 61.7,44.7 71.7,54.7 "/>
</svg>
